<?xml version="1.0" encoding="utf-8"?>
<!-- Generator: Adobe Illustrator 24.2.3, SVG Export Plug-In . SVG Version: 6.00 Build 0)  -->
<svg version="1.1" id="Layer_1" xmlns="http://www.w3.org/2000/svg" xmlns:xlink="http://www.w3.org/1999/xlink" x="0px" y="0px"
	 viewBox="0 0 800 800" style="enable-background:new 0 0 800 800;" xml:space="preserve">
<style type="text/css">
	.st0{fill:#FFFFFF;}
</style>
<path class="st0" d="M400,30.8C195.4,30.8,30.8,195.4,30.8,400S195.4,769.2,400,769.2S769.2,604.6,769.2,400S604.6,30.8,400,30.8z
	 M400,107.7L400,107.7L400,107.7L400,107.7z M430.8,109.2c-1.5,0-1.5,0-3.1,0C429.2,109.2,430.8,109.2,430.8,109.2z M400,692.3
	c-161.5,0-292.3-130.8-292.3-292.3c0-15.4,1.5-32.3,4.6-46.2c20,3.1,44.6,10.8,56.9,23.1c26.2,27.7,55.4,60,83.1,66.2
	c0,0-3.1,1.5-6.2,6.2c-3.1,4.6-6.2,13.8-6.2,29.2c0,72.3,67.7,29.2,67.7,101.5s81.5,101.5,81.5,43.1s53.8-86.2,53.8-130.8
	s-41.5-43.1-67.7-58.5c-27.7-13.8-41.5-36.9-93.8-29.2c-27.7-26.2-43.1-47.7-30.8-72.3c13.8-26.2,70.8-30.8,70.8-70.8
	s-38.5-47.7-66.2-47.7c-12.3,0-38.5-9.2-60-20c26.2-26.2,58.5-47.7,92.3-63.1c24.6,10.8,66.2,27.7,101.5,27.7
	c41.5,0,63.1-29.2,56.9-47.7c69.2,10.8,130.8,46.2,175.4,95.4c-23.1,13.8-53.8,29.2-107.7,29.2c-70.8,0-70.8,72.3-29.2,86.2
	c43.1,13.8,86.2-27.7,100,0c13.8,27.7-100,27.7-70.8,98.5c29.2,70.8,56.9-1.5,86.2,69.2s86.2-10.8,43.1-66.2
	c-18.5-24.6-13.8-100,29.2-100h13.8c6.2,24.6,10.8,50.8,10.8,76.9C692.3,561.5,561.5,692.3,400,692.3z"/>
</svg>
