<?xml version="1.0" encoding="iso-8859-1"?>
<!-- Uploaded to: SVG Repo, www.svgrepo.com, Generator: SVG Repo Mixer Tools -->
<svg height="800px" width="800px" version="1.1" id="Layer_1" xmlns="http://www.w3.org/2000/svg" xmlns:xlink="http://www.w3.org/1999/xlink" 
	 viewBox="0 0 512 512" xml:space="preserve">
<g>
	<polygon style="fill:#ECF0F1;" points="133.818,58.082 11.636,104.627 11.636,500.264 133.818,453.718 	"/>
	<polygon style="fill:#ECF0F1;" points="378.182,58.082 256,104.627 256,500.264 378.182,453.718 	"/>
</g>
<g>
	<polygon style="fill:#FFC107;" points="133.818,58.082 256,104.627 256,500.264 133.818,453.718 	"/>
	<polygon style="fill:#FFC107;" points="378.182,58.082 500.364,104.627 500.364,500.264 378.182,453.718 	"/>
</g>
<path style="fill:#B71C1C;" d="M462.634,96.188c0,46.642-84.452,166.492-84.452,166.492S293.73,142.831,293.73,96.188
	s37.811-84.452,84.452-84.452S462.634,49.548,462.634,96.188z"/>
<circle style="fill:#ECF0F1;" cx="378.182" cy="96.186" r="29.091"/>
<g>
	<path style="fill:#231F20;" d="M418.909,96.188c0-22.457-18.27-40.727-40.727-40.727s-40.727,18.27-40.727,40.727
		s18.27,40.727,40.727,40.727S418.909,118.646,418.909,96.188z M360.727,96.188c0-9.624,7.83-17.455,17.455-17.455
		c9.624,0,17.455,7.83,17.455,17.455s-7.83,17.455-17.455,17.455C368.557,113.643,360.727,105.813,360.727,96.188z"/>
	<path style="fill:#231F20;" d="M331.449,282.297l-3.636,3.636c-4.544,4.544-4.544,11.912,0,16.457
		c2.273,2.273,5.25,3.408,8.228,3.408c2.978,0,5.957-1.136,8.228-3.408l3.636-3.636c4.544-4.544,4.544-11.912,0-16.457
		C343.361,277.753,335.993,277.753,331.449,282.297z"/>
	<path style="fill:#231F20;" d="M85,282.297l-3.636,3.636c-4.544,4.544-4.544,11.912,0,16.457c2.273,2.273,5.25,3.408,8.228,3.408
		c2.978,0,5.957-1.136,8.228-3.408l3.636-3.636c4.544-4.544,4.544-11.912,0-16.457C96.913,277.753,89.545,277.753,85,282.297z"/>
	<path style="fill:#231F20;" d="M182.636,282.297c-4.544-4.544-11.912-4.544-16.457,0c-4.544,4.544-4.544,11.912,0,16.457
		l3.636,3.636c2.273,2.273,5.25,3.408,8.228,3.408s5.957-1.136,8.228-3.408c4.544-4.544,4.544-11.912,0-16.457L182.636,282.297z"/>
	<path style="fill:#231F20;" d="M504.506,93.753l-31.313-11.928C466.239,35.631,426.284,0.1,378.182,0.1
		s-88.056,35.53-95.011,81.723L256,92.175L137.961,47.208c-0.003-0.001-0.007-0.001-0.012-0.002
		c-2.636-1.002-5.578-1.025-8.275,0.002L7.493,93.753C2.982,95.472,0,99.798,0,104.627v264.964c0,0.003,0,0.008,0,0.012v130.66
		c0,3.827,1.882,7.41,5.034,9.581c1.969,1.358,4.276,2.055,6.604,2.055c1.396,0,2.8-0.251,4.141-0.762l118.039-44.966
		l118.039,44.968c1.342,0.511,2.745,0.762,4.141,0.762c1.387,0,2.758-0.278,4.062-0.765c0.028-0.002,0.05,0.014,0.081,0.002
		l118.039-44.968l118.039,44.968c1.342,0.511,2.745,0.762,4.141,0.762c2.327,0,4.635-0.698,6.604-2.055
		c3.151-2.171,5.034-5.754,5.034-9.581V104.627C512,99.798,509.019,95.472,504.506,93.753z M378.182,23.373
		c40.15,0,72.816,32.664,72.816,72.816c0,31.045-46.188,106.278-72.817,145.93c-26.627-39.644-72.815-114.866-72.815-145.93
		C305.366,56.038,338.032,23.373,378.182,23.373z M267.636,376.501l45.028-45.028c4.544-4.544,4.544-11.912,0-16.457
		c-4.544-4.545-11.912-4.544-16.457,0l-28.571,28.572V112.646l15.458-5.888c8.512,49.624,69.309,139.251,83.451,159.588v179.352
		l-98.909,37.68V376.501z M23.273,374.417l42.944-42.944c4.544-4.544,4.544-11.912,0-16.457c-4.544-4.544-11.912-4.544-16.457,0
		l-26.487,26.487V112.646l98.909-37.68v370.732l-98.909,37.68V374.417z M145.455,74.966l98.909,37.68v228.858l-26.487-26.487
		c-4.544-4.545-11.912-4.544-16.456,0c-4.544,4.544-4.545,11.912,0,16.456l42.943,42.943v108.962l-98.909-37.68V74.966z
		 M488.727,483.378l-98.909-37.68V266.346c14.143-20.337,74.941-109.964,83.453-159.588l15.457,5.888V483.378z"/>
</g>
</svg>